# xmcd
#
# Track frame offsets:
#	150
#	20562
#	46794
#	70450
#	85272
#	98651
#	117022
#	139500
#	158543
#	173433
#	195941
#	212500
#	233205
#	245496
#	263555
#
# Disc length: 3871 seconds
#
# Revision: 1
# Processed by: cddbd v1.5.2PL0 Copyright (c) Steve Scherf et al.
# Submitted via: audiograbber 1.83.01
#
DISCID=b20f1d0f
DTITLE=Various Artist - New Orleans Festival, Innsbruck 2008
DYEAR=2008
DGENRE=Blues
TTITLE0=Chucky C. and Clearly Blue - The Blues is allright
TTITLE1=Gary Brown and Feelings - Mr. Clean Head
TTITLE2=Les Getrex and Creole Cooking - Stoop down Mama
TTITLE3=Gail Anderson and The Rhythm Kings - Won't be long
TTITLE4=George Nussbaumer - It's allright
TTITLE5=Oscar Klein and Pick-A-Blues - C-Jam-Blues
TTITLE6=STB Dixie Train - Mardi Gras
TTITLE7=The Markus Linder Blues Band - Ain't got no home
TTITLE8=Die Tempelsänger - Pop in, Jazz up, Rock out
TTITLE9=Edu Weber and Bonneville - Edna, South Texas
TTITLE10=Dixielanders Hall - On the sunny side of the street
TTITLE11=Chary Augschöll Hotline - Dumbogo
TTITLE12=Hot Rod - Lipstick, Powder and Paint
TTITLE13=The Untouchables - Standing on the edge of love
TTITLE14=Ratamacue - Set it on fire
EXTD=
EXTT0=
EXTT1=
EXTT2=
EXTT3=
EXTT4=
EXTT5=
EXTT6=
EXTT7=
EXTT8=
EXTT9=
EXTT10=
EXTT11=
EXTT12=
EXTT13=
EXTT14=
PLAYORDER=
